PathFileType	4	(X/Y/Z)	Run_200 02
DataRate	CameraRate	NumFrames	NumMarkers	Units	OrigDataRate	OrigDataStartFrame	OrigNumFrames
100	100	6	42	mm	100	466	128
Frame#	Time	RASI			LPSI			RPSI			RTH1			RTH2			RTH3			LTH1			LTH2			LTH3			RTB1			RTB2			RTB3			LTB1			LTB2			LTB3			RCAL			RTOE			RMT5			LCAL			LTOE			LMT5			LACR			RACR			C7			RUA1			RUA2			RUA3			RLEL			RMEL			LUA2			LUA3			LLEL			LMEL			RFAsuperior			RFAradius			RFAulna			LFAsuperior			LFAradius			LFAulna			LUA1			CLAV			LASI		
		X1	Y1	Z1	X2	Y2	Z2	X3	Y3	Z3	X4	Y4	Z4	X5	Y5	Z5	X6	Y6	Z6	X7	Y7	Z7	X8	Y8	Z8	X9	Y9	Z9	X10	Y10	Z10	X11	Y11	Z11	X12	Y12	Z12	X13	Y13	Z13	X14	Y14	Z14	X15	Y15	Z15	X16	Y16	Z16	X17	Y17	Z17	X18	Y18	Z18	X19	Y19	Z19	X20	Y20	Z20	X21	Y21	Z21	X22	Y22	Z22	X23	Y23	Z23	X24	Y24	Z24	X25	Y25	Z25	X26	Y26	Z26	X27	Y27	Z27	X28	Y28	Z28	X29	Y29	Z29	X30	Y30	Z30	X31	Y31	Z31	X32	Y32	Z32	X33	Y33	Z33	X34	Y34	Z34	X35	Y35	Z35	X36	Y36	Z36	X37	Y37	Z37	X38	Y38	Z38	X39	Y39	Z39	X40	Y40	Z40	X41	Y41	Z41	X42	Y42	Z42	

466	  4.660000	1113.850455	1017.128363	-195.256502	963.027163	1060.639202	-385.672385	949.971914	1059.164979	-292.765250	1107.504991	853.824943	-139.330041	1187.685994	780.538101	-148.419788	1187.113645	640.145684	-163.254045	1058.671738	856.204660	-509.952754	1106.313632	722.387976	-483.520297	1015.214773	613.155675	-470.751578	1203.653897	396.547132	-228.649961	1105.770834	335.935919	-190.750009	1096.884445	255.919184	-248.192185	970.242269	331.236589	-381.705569	914.646484	287.803885	-422.604754	892.513211	216.842220	-361.355021	942.416046	221.763147	-265.641235	1147.353802	105.962309	-243.565837	1112.097881	 96.484140	-170.906021	724.691714	140.486268	-342.294336	954.054286	 68.753682	-314.861580	925.011764	 57.594179	-403.141682	1173.085113	1529.197545	-499.956914	1097.112394	1515.890168	-157.872029	1071.547683	1556.207695	-345.944798	986.327596	1422.273808	-100.673817	924.736860	1440.508924	-131.700197	902.984391	1373.512742	-105.132685	838.623998	1320.506365	-97.948017	828.901918	1327.786086	-190.974339	1052.599907	1357.676817	-586.715251	1095.249404	1282.824551	-599.258895	1081.200552	1214.679970	-611.661551	1023.486270	1210.321672	-539.200702	909.951803	1266.585746	-95.562161	1044.940200	1172.672790	-145.161405	994.169709	1124.127812	-129.990919	1158.024395	1201.306794	-568.491105	1274.713869	1232.982233	-439.952801	1279.881925	1161.137641	-446.529131	1133.599462	1407.264656	-578.985965	1176.320798	1465.394944	-287.268018	1137.682126	1014.957411	-451.309535	
467	  4.670000	1115.552643	1024.897248	-195.405009	966.482085	1066.906047	-387.251246	952.471113	1066.599479	-294.461386	1108.684914	862.252463	-138.658374	1188.598202	788.319242	-148.097930	1186.468487	647.248898	-164.151711	1058.924846	860.318301	-508.928701	1100.978245	725.715872	-480.511300	1005.156149	619.738819	-469.583290	1212.893874	399.555608	-228.900188	1119.751494	331.167377	-191.760747	1117.475938	251.058496	-249.741583	954.166573	338.261297	-381.544462	898.461025	294.937804	-422.443637	876.789053	223.516141	-361.429028	966.147603	204.336348	-268.017491	1180.125424	106.347569	-244.828363	1145.256063	 93.744983	-172.363952	709.934385	150.107764	-342.694265	934.939657	 68.716691	-314.917344	905.677426	 57.880089	-402.839215	1173.293486	1538.397040	-497.532914	1096.443214	1523.986221	-157.130763	1070.747145	1563.527393	-344.968378	985.048352	1432.595001	-100.546045	924.283161	1451.788380	-132.488230	901.390063	1385.118786	-105.656172	836.067687	1332.824036	-99.382192	827.521197	1340.394893	-192.680921	1056.386213	1367.345600	-588.045759	1099.149794	1292.854177	-599.968943	1085.494992	1224.528813	-612.485374	1025.916132	1220.127893	-541.212896	907.529838	1279.858385	-96.206806	1044.676450	1187.885658	-144.179801	994.292801	1138.494495	-130.940781	1161.452657	1213.342180	-567.471397	1273.772064	1249.537009	-435.977958	1281.447322	1177.859051	-441.822354	1136.756771	1417.000214	-578.026622	1175.958279	1473.517184	-286.064934	1139.278486	1022.131820	-451.274111	
468	  4.680000	1117.526886	1032.526312	-195.752032	969.941882	1072.863339	-388.428329	955.019913	1073.755496	-296.053364	1109.819087	870.192392	-138.017703	1189.081665	795.088194	-147.933018	1184.573326	653.258923	-165.336999	1059.137910	864.717333	-508.021660	1096.235005	729.573918	-477.832280	996.203939	626.708818	-468.778516	1220.982092	402.011049	-229.067062	1133.707507	326.034409	-192.702955	1137.710351	246.526326	-251.346412	939.235157	345.961804	-381.612848	883.290034	302.875032	-422.425883	862.192089	230.931674	-361.710143	990.637789	187.346933	-270.024359	1212.340939	108.143900	-246.936449	1178.556055	 92.205636	-174.651350	696.458542	160.722528	-342.815646	916.084936	 68.675538	-315.046477	886.574111	 58.233169	-402.520382	1173.464766	1547.770872	-495.175403	1095.941726	1531.921113	-156.456530	1069.914685	1570.837812	-343.909716	984.128669	1442.718696	-100.270181	924.037637	1462.500811	-132.947227	900.290072	1396.000299	-105.785613	834.188874	1344.114507	-100.364439	826.538207	1352.029697	-193.892846	1059.384111	1377.539710	-588.824538	1102.621047	1303.527449	-601.035970	1089.309111	1235.023818	-613.795959	1028.093551	1230.276977	-543.696888	905.933752	1292.264931	-96.521192	1045.118414	1202.377648	-143.074827	995.269951	1152.122707	-131.609416	1164.357680	1225.489728	-567.201307	1272.357980	1264.827027	-432.681712	1282.465221	1193.388671	-438.110285	1139.521513	1427.160625	-577.195319	1175.571492	1481.568349	-284.888009	1141.153372	1029.169631	-451.414101	
469	  4.690000	1119.850257	1039.766533	-196.326566	973.288043	1078.516473	-389.438332	957.691571	1080.394689	-297.435684	1110.949287	877.333863	-137.356838	1189.075655	800.518493	-147.917787	1181.245588	658.044383	-166.588633	1059.480646	869.339503	-507.330812	1092.211261	733.714928	-475.548773	988.455401	633.820793	-468.326046	1227.953837	403.968618	-229.232525	1147.633271	320.789511	-193.528095	1157.478093	242.486211	-252.911215	925.563678	354.073867	-381.936330	869.239589	311.385445	-422.667700	848.785688	238.837078	-362.316432	1015.729345	171.235714	-271.472323	1243.614208	111.410681	-250.010729	1211.691953	 91.940356	-177.804266	684.340379	172.125020	-342.818431	897.508893	 68.709347	-315.265552	867.757631	 58.762360	-402.372630	1173.524068	1557.073944	-492.896577	1095.602309	1539.549183	-155.883415	1069.045763	1577.929939	-342.839838	983.604610	1452.360855	-99.848297	924.034560	1472.435621	-133.153276	899.643026	1406.052573	-105.507951	832.945631	1354.245540	-100.843249	825.986972	1362.513350	-194.615534	1061.450073	1388.062464	-588.914975	1105.630964	1314.602122	-602.386177	1092.656880	1245.848189	-615.468114	1030.131154	1240.407141	-546.591533	905.082715	1303.588803	-96.479252	1046.180399	1215.926455	-141.923070	996.991029	1164.834095	-131.934166	1166.847337	1237.572046	-567.511633	1270.699899	1278.690507	-430.037229	1283.052763	1207.523557	-435.251955	1141.716767	1437.527984	-576.433624	1175.151680	1489.328006	-283.807672	1143.387656	1035.850150	-451.802693	
470	  4.700000	1122.534538	1046.362108	-196.998861	976.533084	1083.880978	-390.403964	960.603973	1086.403246	-298.527881	1112.120078	883.425308	-136.659840	1188.580241	804.451870	-147.874857	1176.378171	661.544353	-167.674813	1060.144931	874.013824	-506.960774	1088.966948	737.890261	-473.708987	981.928697	640.880826	-468.142328	1233.892819	405.596419	-229.634286	1161.332920	315.816325	-194.267395	1176.634009	239.156231	-254.383421	913.238635	362.370311	-382.533035	856.449728	320.223020	-423.307047	836.580050	246.979938	-363.286712	1041.144117	156.471726	-272.235121	1273.523865	116.136508	-253.986906	1244.231475	 93.035691	-181.712949	673.583766	184.141105	-342.954937	879.266325	 68.922096	-315.635932	849.316132	 59.612232	-402.614669	1173.386025	1566.030543	-490.679931	1095.417033	1546.740356	-155.324050	1068.157580	1584.622260	-341.780655	983.477738	1461.200022	-99.244227	924.309853	1481.389654	-133.125235	899.414980	1415.181596	-104.811695	832.311226	1363.149313	-100.751231	825.825132	1371.718251	-194.789592	1062.741786	1398.586558	-588.474525	1108.157956	1325.748073	-603.973447	1095.520939	1256.630768	-617.396074	1031.967377	1250.224104	-549.698031	904.913313	1313.697698	-96.071087	1047.787152	1228.360727	-140.823228	999.355640	1176.484436	-131.854028	1168.927202	1249.329819	-568.187000	1268.928865	1291.026488	-427.926947	1283.252347	1220.115306	-433.124547	1143.217067	1447.879240	-575.681899	1174.702049	1496.616425	-282.881118	1145.984444	1041.898393	-452.308819	
471	  4.710000	1125.518822	1052.136072	-197.670849	979.738174	1088.843445	-391.176246	963.774465	1091.787792	-299.340409	1113.376133	888.285553	-135.959022	1187.609715	806.911867	-147.667920	1170.169292	663.761172	-168.513744	1061.229450	878.539065	-506.948710	1086.521591	741.932872	-472.330233	976.650407	647.726044	-468.092175	1238.842319	407.074772	-230.464279	1174.421281	311.504133	-194.985373	1194.959963	236.756746	-255.773158	902.337627	370.626191	-383.304680	845.077005	329.138819	-424.325383	825.535208	255.144928	-364.536443	1066.479792	143.455542	-272.358755	1301.620889	122.225669	-258.534203	1275.608475	 95.577690	-186.126137	664.098275	196.597612	-343.490292	861.417505	 69.412477	-316.173122	831.312752	 60.887597	-403.266469	1172.996669	1574.359680	-488.472235	1095.388333	1553.319653	-154.665503	1067.282000	1590.757669	-340.692615	983.687913	1468.946887	-98.389995	924.843985	1489.146698	-132.802556	899.552663	1423.247665	-103.682624	832.245667	1370.752034	-100.033830	825.954598	1379.503637	-194.335760	1063.583928	1408.710632	-587.863607	1110.200333	1336.583914	-605.762593	1097.863142	1266.999452	-619.486877	1033.425945	1259.508956	-552.784807	905.389700	1322.518098	-95.286535	1049.867458	1239.554033	-139.816215	1002.277087	1186.938729	-131.316603	1170.507304	1260.358658	-569.051781	1267.152762	1301.718515	-426.235101	1283.040913	1231.011406	-431.646746	1144.015903	1457.973147	-574.962073	1174.258375	1503.301980	-282.083985	1148.877385	1047.115789	-452.813201	
